<?xml version="1.0" standalone="no"?>
<!DOCTYPE svg PUBLIC "-//W3C//DTD SVG 20010904//EN"
 "http://www.w3.org/TR/2001/REC-SVG-20010904/DTD/svg10.dtd">
<svg version="1.0" xmlns="http://www.w3.org/2000/svg"
 width="256.000000pt" height="256.000000pt" viewBox="0 0 256.000000 256.000000"
 preserveAspectRatio="xMidYMid meet">
<metadata>
Created by potrace 1.11, written by Peter Selinger 2001-2013
</metadata>
<g transform="translate(0.000000,256.000000) scale(0.100000,-0.100000)"
fill="#000000" stroke="none">
<path d="M1251 2432 c-5 -10 -28 -65 -51 -123 -23 -57 -43 -106 -45 -108 -2
-1 -45 20 -95 48 -89 51 -122 57 -133 28 -3 -7 14 -88 38 -180 23 -92 39 -167
35 -167 -4 0 -27 7 -50 15 -56 20 -77 19 -89 -3 -8 -15 6 -57 60 -188 l70
-169 -23 -18 c-91 -74 -138 -131 -175 -214 -46 -104 -51 -149 -49 -491 2 -294
4 -322 24 -383 129 -393 637 -500 911 -192 47 52 107 156 115 198 3 11 9 39
14 61 5 23 9 185 8 360 -1 304 -2 322 -24 386 -36 104 -99 191 -195 271 l-27
23 69 169 c85 208 82 229 -29 190 -23 -8 -46 -15 -50 -15 -4 0 11 73 34 163
23 89 40 170 38 179 -7 34 -39 30 -121 -16 -43 -25 -85 -47 -91 -48 -6 -2 -30
44 -53 103 -23 58 -48 113 -56 123 -18 21 -48 20 -60 -2z"/>
</g>
</svg>
